<?xml version="1.0" encoding="UTF-8" standalone="no"?>
<svg
   xmlns:dc="http://purl.org/dc/elements/1.1/"
   xmlns:cc="http://creativecommons.org/ns#"
   xmlns:rdf="http://www.w3.org/1999/02/22-rdf-syntax-ns#"
   xmlns:svg="http://www.w3.org/2000/svg"
   xmlns="http://www.w3.org/2000/svg"
   viewBox="0 0 2133.3333 1200"
   height="1200"
   width="2133.3333"
   xml:space="preserve"
   id="svg2"
   version="1.1"><metadata
     id="metadata8"><rdf:RDF><cc:Work
         rdf:about=""><dc:format>image/svg+xml</dc:format><dc:type
           rdf:resource="http://purl.org/dc/dcmitype/StillImage" /></cc:Work></rdf:RDF></metadata><defs
     id="defs6"><clipPath
       id="clipPath20"
       clipPathUnits="userSpaceOnUse"><path
         id="path18"
         d="M 15999.4,0 H 0.625 V 9000 H 15999.4 V 0 m -5739,4547.7 c -384.59,0 -609.04,-237.09 -894.29,-237.09 193.96,0 998.89,0 1133.69,0 949.6,0 1701.1,-186 2046,-186 344.9,0 193.6,186 1184.2,186 990.6,0 1475.3,46.08 1569.7,140.49 94.4,94.41 114.7,377.98 -569.7,377.98 -684.4,0 -152.7,79.07 -915.4,212.12 -762.7,133.05 -182.8,573.93 -84.6,672.1 98.2,98.17 213.3,360.23 276.5,423.42 63.2,63.2 632,235.11 -826.9,333.69 340.7,25.37 887.6,61.92 1210.4,61.92 450.7,0 1270.6,-225.07 1372.2,-225.08 9.9,0 13,2.11 8.3,6.75 -52.5,52.5 375,419.99 -307.4,593.69 -158.3,40.31 -262.2,55.79 -338.2,55.79 -251.3,0 -197.4,-169.5 -803.2,-169.5 -788.9,0 -1116.1,-15 -1647.9,-15 -531.9,0 -503.1,0 -1071.4,0 -568.3,0 -961.6,119.99 -1820.76,228.92 -859.12,108.92 45.81,41.07 45.81,100.2 0,19.71 -214.64,26.28 -520.48,26.28 -611.72,0 -1588.42,-26.28 -1943.16,-26.28 -532.1,0 -1005.65,-314.12 -1005.65,-314.12 0,0 7.83,75 -743.16,213.92 -482.2,89.2 -653.94,105.16 -842.46,105.16 -105.08,0 -215.36,-4.96 -387.54,-4.96 -481.06,0 -28.91,-314.12 -433.89,-411.44 -89.26,-21.45 -145.75,-30.9 -187.9,-30.9 -149.07,-0.01 -118.88,118.2 -726.51,241.93 -187.77,38.24 -326.05,54.06 -435.16,54.06 -343.8,0 -398.32,-157.05 -801.54,-265.09 -531.19,-142.31 -293.77,-766.39 -711.65,-766.39 0,0 -407.08,-1176.19 -64.15,-1338.17 68.82,-32.51 157.86,-45.5 263.91,-45.5 422.39,0 1115.17,206.06 1880.24,206.06 892.95,0 234.49,-208.34 1213.24,-208.34 70.37,0 149.1,1.07 237.59,3.38 309.84,8.08 529.08,10.51 683.17,10.51 116.35,0 195.55,-1.38 248.59,-2.77 53.04,-1.38 79.9,-2.77 91.56,-2.77 26.96,0 -27.5,7.42 -27.5,39.43 0,43.64 -46.57,103.25 267.11,103.25 246.95,0 717.16,-36.92 1609.34,-147.65 558.77,-69.35 898.77,-96.6 1101.13,-96.6 531.17,0 114.63,187.59 220.84,293.8 146.69,146.68 612.41,39.18 1327.28,146.2 161,24.1 289.4,33.44 395.9,33.44 366.5,0 475.2,-110.46 771.1,-110.46 45.5,0 90.7,-0.21 136,-0.21 315.4,0 631.8,10.23 1055.5,173.45 241,-54.62 443.1,-96.22 443.1,-96.22 0,0 92.3,6.78 171.8,6.78 146.2,0 249.2,-22.9 -343.4,-152.98 -883.3,-193.84 -2042.1,-197.2 -2467.3,-197.2 -15.3,0 -29.6,0 -43,0 m -2626.91,400.44 c -152.11,0 -290.2,18.48 -453.96,74.81 -476.38,163.88 566.39,271.11 -239.39,523.95 -212.01,66.53 -339.66,92.89 -415.3,92.89 -211.83,0 -16.04,-206.54 -125.23,-315.73 -148.18,-148.19 -123.62,-305.76 -583.1,-305.76 -155.39,0 -311.01,-2.77 -457.47,-2.77 -286.61,0 -538.32,10.61 -685.74,73.36 -222.76,94.82 597.74,70.17 173.5,173.04 -143.37,34.77 -244.21,46.28 -339.51,46.28 -186.71,0 -352.3,-44.15 -775.63,-44.15 -130.98,0 -234.32,-2.13 -320.31,-2.13 -333.85,0 -407.37,32.01 -831.35,344.67 -230.6,170.06 -171.68,209.43 -40.64,209.43 56.49,0 126.37,-7.32 192.25,-14.63 65.88,-7.31 127.75,-14.63 168.21,-14.63 42.26,0 61.16,7.98 36.88,32.26 -124.72,124.72 -875.5,479.98 -441.12,539.97 80.33,11.1 157.7,16.04 228.62,16.04 312.57,0 500.87,-95.87 275.8,-183.31 -276.14,-107.27 36.15,-372.7 1191.7,-372.7 1155.55,0 1004.34,149.99 193.3,370.12 -811.04,220.13 -13.91,430.85 375,430.85 388.91,0 706.03,-173.4 1156.01,-173.4 403.51,0 -37.22,-323.74 545.58,-323.74 67.12,0 147.76,4.29 244.89,13.86 97.66,9.63 182.06,13.83 255.59,13.83 252.24,0 376.73,-49.43 471.46,-98.86 94.72,-49.44 159.68,-98.87 292.78,-98.87 68.64,0 155.38,13.14 273.69,46.2 644.06,179.99 -3.52,109.42 334.64,447.58 112.71,112.71 166.54,150.29 229.51,150.29 125.94,0 288.46,-150.29 1032,-150.29 1115.25,0 -65.32,-162.59 470.75,-254.87 209,-35.95 474.4,-54.93 768.2,-54.93 460,0 989.7,46.51 1481.6,147.21 61.4,12.57 116.6,24.15 166.3,34.85 321.1,-100.34 306.4,-145.31 -39.3,-244.84 -573,-164.99 483.3,-355.87 342,-497.24 -141.4,-141.36 -1163.5,-277.56 -1077.6,-363.48 30.9,-30.95 199.7,-81.4 403,-133.29 -217.9,-34.28 -514.6,-61.71 -976.1,-61.71 -1230.78,0 -269.2,195 -1068.1,195 -798.79,0 -116.09,-197.77 -1133.78,-197.77 -667.86,0 -1009.24,-67.38 -1299.63,-67.39" /></clipPath><linearGradient
       id="linearGradient28"
       spreadMethod="pad"
       gradientTransform="matrix(4e-7,-9405.36,-9405.36,-4e-7,8000,9303.75)"
       gradientUnits="userSpaceOnUse"
       y2="0"
       x2="1"
       y1="0"
       x1="0"><stop
         id="stop22"
         offset="0"
         style="stop-opacity:1;stop-color:#c33656" /><stop
         id="stop24"
         offset="0.696812"
         style="stop-opacity:1;stop-color:#f6864f" /><stop
         id="stop26"
         offset="1"
         style="stop-opacity:1;stop-color:#f6864f" /></linearGradient><clipPath
       id="clipPath38"
       clipPathUnits="userSpaceOnUse"><path
         id="path36"
         d="m 12545.8,4124.61 c -344.9,0 -1096.4,186 -2046,186 -134.8,0 -939.73,0 -1133.69,0 285.25,0 509.7,237.09 894.29,237.09 13.4,0 27.7,0 43,0 425.2,0 1584,3.36 2467.3,197.2 592.6,130.08 489.6,152.98 343.4,152.98 -79.5,0 -171.8,-6.78 -171.8,-6.78 0,0 -202.1,41.6 -443.1,96.22 -423.7,-163.22 -740.1,-173.45 -1055.5,-173.45 -45.3,0 -90.5,0.21 -136,0.21 -295.9,0 -404.6,110.46 -771.1,110.46 -106.5,0 -234.9,-9.34 -395.9,-33.44 -714.87,-107.02 -1180.59,0.48 -1327.28,-146.2 -106.21,-106.21 310.33,-293.8 -220.84,-293.8 -202.36,0 -542.36,27.25 -1101.13,96.6 -892.18,110.73 -1362.39,147.65 -1609.34,147.65 -313.68,0 -267.11,-59.61 -267.11,-103.25 0,-32.01 54.46,-39.43 27.5,-39.43 -11.66,0 -38.52,1.39 -91.56,2.77 -53.04,1.39 -132.24,2.77 -248.59,2.77 -154.09,0 -373.33,-2.43 -683.17,-10.51 -88.49,-2.31 -167.22,-3.38 -237.59,-3.38 -978.75,0 -320.29,208.34 -1213.24,208.34 -765.07,0 -1457.85,-206.06 -1880.24,-206.06 -106.05,0 -195.09,12.99 -263.91,45.5 -342.93,161.98 64.15,1338.17 64.15,1338.17 417.88,0 180.46,624.08 711.65,766.39 403.22,108.04 457.74,265.09 801.54,265.09 109.11,0 247.39,-15.82 435.16,-54.06 607.63,-123.73 577.44,-241.94 726.51,-241.93 42.15,0 98.64,9.45 187.9,30.9 404.98,97.32 -47.17,411.44 433.89,411.44 172.18,0 282.46,4.96 387.54,4.96 188.52,0 360.26,-15.96 842.46,-105.16 750.99,-138.92 743.16,-213.92 743.16,-213.92 0,0 473.55,314.12 1005.65,314.12 354.74,0 1331.44,26.28 1943.16,26.28 305.84,0 520.48,-6.57 520.48,-26.28 0,-59.13 -904.93,8.72 -45.81,-100.2 859.16,-108.93 1252.46,-228.92 1820.76,-228.92 568.3,0 539.5,0 1071.4,0 531.8,0 859,15 1647.9,15 605.8,0 551.9,169.5 803.2,169.5 76,0 179.9,-15.48 338.2,-55.79 682.4,-173.7 254.9,-541.19 307.4,-593.69 4.7,-4.64 1.6,-6.75 -8.3,-6.75 -101.6,0.01 -921.5,225.08 -1372.2,225.08 -322.8,0 -869.7,-36.55 -1210.4,-61.92 1458.9,-98.58 890.1,-270.49 826.9,-333.69 -63.2,-63.19 -178.3,-325.25 -276.5,-423.42 -98.2,-98.17 -678.1,-539.05 84.6,-672.1 762.7,-133.05 231,-212.12 915.4,-212.12 684.4,0 664.1,-283.57 569.7,-377.98 -94.4,-94.41 -579.1,-140.49 -1569.7,-140.49 -990.6,0 -839.3,-186 -1184.2,-186 M 6524.84,5639.79 c 75.64,0 203.29,-26.36 415.3,-92.89 805.78,-252.84 -236.99,-360.07 239.39,-523.95 163.76,-56.33 301.85,-74.81 453.96,-74.81 290.39,0.01 631.77,67.39 1299.63,67.39 1017.69,0 334.99,197.77 1133.78,197.77 798.9,0 -162.68,-195 1068.1,-195 461.5,0 758.2,27.43 976.1,61.71 -203.3,51.89 -372.1,102.34 -403,133.29 -85.9,85.92 936.2,222.12 1077.6,363.48 141.3,141.37 -915,332.25 -342,497.24 345.7,99.53 360.4,144.5 39.3,244.84 -49.7,-10.7 -104.9,-22.28 -166.3,-34.85 -491.9,-100.7 -1021.6,-147.21 -1481.6,-147.21 -293.8,0 -559.2,18.98 -768.2,54.93 -536.07,92.28 644.5,254.87 -470.75,254.87 -743.54,0 -906.06,150.29 -1032,150.29 -62.97,0 -116.8,-37.58 -229.51,-150.29 -338.16,-338.16 309.42,-267.59 -334.64,-447.58 -118.31,-33.06 -205.05,-46.2 -273.69,-46.2 -133.1,0 -198.06,49.43 -292.78,98.87 -94.73,49.43 -219.22,98.86 -471.46,98.86 -73.53,0 -157.93,-4.2 -255.59,-13.83 -97.13,-9.57 -177.77,-13.86 -244.89,-13.86 -582.8,0 -142.07,323.74 -545.58,323.74 -449.98,0 -767.1,173.4 -1156.01,173.4 -388.91,0 -1186.04,-210.72 -375,-430.85 811.04,-220.13 962.25,-370.12 -193.3,-370.12 -1155.55,0 -1467.84,265.43 -1191.7,372.7 225.07,87.44 36.77,183.31 -275.8,183.31 -70.92,0 -148.29,-4.94 -228.62,-16.04 -434.38,-59.99 316.4,-415.25 441.12,-539.97 24.28,-24.28 5.38,-32.26 -36.88,-32.26 -40.46,0 -102.33,7.32 -168.21,14.63 -65.88,7.31 -135.76,14.63 -192.25,14.63 -131.04,0 -189.96,-39.37 40.64,-209.43 423.98,-312.66 497.5,-344.67 831.35,-344.67 85.99,0 189.33,2.13 320.31,2.13 423.33,0 588.92,44.15 775.63,44.15 95.3,0 196.14,-11.51 339.51,-46.28 424.24,-102.87 -396.26,-78.22 -173.5,-173.04 147.42,-62.75 399.13,-73.36 685.74,-73.36 146.46,0 302.08,2.77 457.47,2.77 459.48,0 434.92,157.57 583.1,305.76 109.19,109.19 -86.6,315.73 125.23,315.73" /></clipPath><linearGradient
       id="linearGradient46"
       spreadMethod="pad"
       gradientTransform="matrix(4e-7,-9405.36,-9405.36,-4e-7,8000,9303.75)"
       gradientUnits="userSpaceOnUse"
       y2="0"
       x2="1"
       y1="0"
       x1="0"><stop
         id="stop40"
         offset="0"
         style="stop-opacity:1;stop-color:#da7785" /><stop
         id="stop42"
         offset="0.696812"
         style="stop-opacity:1;stop-color:#f9ab7f" /><stop
         id="stop44"
         offset="1"
         style="stop-opacity:1;stop-color:#f9ab7f" /></linearGradient><clipPath
       id="clipPath56"
       clipPathUnits="userSpaceOnUse"><path
         id="path54"
         d="m 4191.7,230 8178.2,74.402 -561,1606.698 -7558.9,-94.43 z" /></clipPath><linearGradient
       id="linearGradient64"
       spreadMethod="pad"
       gradientTransform="matrix(1e-7,2353.6,2353.6,-1e-7,8280.79,190)"
       gradientUnits="userSpaceOnUse"
       y2="0"
       x2="1"
       y1="0"
       x1="0"><stop
         id="stop58"
         offset="0"
         style="stop-opacity:1;stop-color:#c33656" /><stop
         id="stop60"
         offset="0.696812"
         style="stop-opacity:1;stop-color:#f68184" /><stop
         id="stop62"
         offset="1"
         style="stop-opacity:1;stop-color:#f68184" /></linearGradient></defs><g
     transform="matrix(1.3333333,0,0,-1.3333333,0,1200)"
     id="g10"><g
       transform="scale(0.1)"
       id="g12"><g
         id="g14"><g
           clip-path="url(#clipPath20)"
           id="g16"><path
             id="path30"
             style="fill:url(#linearGradient28);fill-opacity:1;fill-rule:nonzero;stroke:none"
             d="M 15999.4,0 H 0.625 V 9000 H 15999.4 V 0 m -5739,4547.7 c -384.59,0 -609.04,-237.09 -894.29,-237.09 193.96,0 998.89,0 1133.69,0 949.6,0 1701.1,-186 2046,-186 344.9,0 193.6,186 1184.2,186 990.6,0 1475.3,46.08 1569.7,140.49 94.4,94.41 114.7,377.98 -569.7,377.98 -684.4,0 -152.7,79.07 -915.4,212.12 -762.7,133.05 -182.8,573.93 -84.6,672.1 98.2,98.17 213.3,360.23 276.5,423.42 63.2,63.2 632,235.11 -826.9,333.69 340.7,25.37 887.6,61.92 1210.4,61.92 450.7,0 1270.6,-225.07 1372.2,-225.08 9.9,0 13,2.11 8.3,6.75 -52.5,52.5 375,419.99 -307.4,593.69 -158.3,40.31 -262.2,55.79 -338.2,55.79 -251.3,0 -197.4,-169.5 -803.2,-169.5 -788.9,0 -1116.1,-15 -1647.9,-15 -531.9,0 -503.1,0 -1071.4,0 -568.3,0 -961.6,119.99 -1820.76,228.92 -859.12,108.92 45.81,41.07 45.81,100.2 0,19.71 -214.64,26.28 -520.48,26.28 -611.72,0 -1588.42,-26.28 -1943.16,-26.28 -532.1,0 -1005.65,-314.12 -1005.65,-314.12 0,0 7.83,75 -743.16,213.92 -482.2,89.2 -653.94,105.16 -842.46,105.16 -105.08,0 -215.36,-4.96 -387.54,-4.96 -481.06,0 -28.91,-314.12 -433.89,-411.44 -89.26,-21.45 -145.75,-30.9 -187.9,-30.9 -149.07,-0.01 -118.88,118.2 -726.51,241.93 -187.77,38.24 -326.05,54.06 -435.16,54.06 -343.8,0 -398.32,-157.05 -801.54,-265.09 -531.19,-142.31 -293.77,-766.39 -711.65,-766.39 0,0 -407.08,-1176.19 -64.15,-1338.17 68.82,-32.51 157.86,-45.5 263.91,-45.5 422.39,0 1115.17,206.06 1880.24,206.06 892.95,0 234.49,-208.34 1213.24,-208.34 70.37,0 149.1,1.07 237.59,3.38 309.84,8.08 529.08,10.51 683.17,10.51 116.35,0 195.55,-1.38 248.59,-2.77 53.04,-1.38 79.9,-2.77 91.56,-2.77 26.96,0 -27.5,7.42 -27.5,39.43 0,43.64 -46.57,103.25 267.11,103.25 246.95,0 717.16,-36.92 1609.34,-147.65 558.77,-69.35 898.77,-96.6 1101.13,-96.6 531.17,0 114.63,187.59 220.84,293.8 146.69,146.68 612.41,39.18 1327.28,146.2 161,24.1 289.4,33.44 395.9,33.44 366.5,0 475.2,-110.46 771.1,-110.46 45.5,0 90.7,-0.21 136,-0.21 315.4,0 631.8,10.23 1055.5,173.45 241,-54.62 443.1,-96.22 443.1,-96.22 0,0 92.3,6.78 171.8,6.78 146.2,0 249.2,-22.9 -343.4,-152.98 -883.3,-193.84 -2042.1,-197.2 -2467.3,-197.2 -15.3,0 -29.6,0 -43,0 m -2626.91,400.44 c -152.11,0 -290.2,18.48 -453.96,74.81 -476.38,163.88 566.39,271.11 -239.39,523.95 -212.01,66.53 -339.66,92.89 -415.3,92.89 -211.83,0 -16.04,-206.54 -125.23,-315.73 -148.18,-148.19 -123.62,-305.76 -583.1,-305.76 -155.39,0 -311.01,-2.77 -457.47,-2.77 -286.61,0 -538.32,10.61 -685.74,73.36 -222.76,94.82 597.74,70.17 173.5,173.04 -143.37,34.77 -244.21,46.28 -339.51,46.28 -186.71,0 -352.3,-44.15 -775.63,-44.15 -130.98,0 -234.32,-2.13 -320.31,-2.13 -333.85,0 -407.37,32.01 -831.35,344.67 -230.6,170.06 -171.68,209.43 -40.64,209.43 56.49,0 126.37,-7.32 192.25,-14.63 65.88,-7.31 127.75,-14.63 168.21,-14.63 42.26,0 61.16,7.98 36.88,32.26 -124.72,124.72 -875.5,479.98 -441.12,539.97 80.33,11.1 157.7,16.04 228.62,16.04 312.57,0 500.87,-95.87 275.8,-183.31 -276.14,-107.27 36.15,-372.7 1191.7,-372.7 1155.55,0 1004.34,149.99 193.3,370.12 -811.04,220.13 -13.91,430.85 375,430.85 388.91,0 706.03,-173.4 1156.01,-173.4 403.51,0 -37.22,-323.74 545.58,-323.74 67.12,0 147.76,4.29 244.89,13.86 97.66,9.63 182.06,13.83 255.59,13.83 252.24,0 376.73,-49.43 471.46,-98.86 94.72,-49.44 159.68,-98.87 292.78,-98.87 68.64,0 155.38,13.14 273.69,46.2 644.06,179.99 -3.52,109.42 334.64,447.58 112.71,112.71 166.54,150.29 229.51,150.29 125.94,0 288.46,-150.29 1032,-150.29 1115.25,0 -65.32,-162.59 470.75,-254.87 209,-35.95 474.4,-54.93 768.2,-54.93 460,0 989.7,46.51 1481.6,147.21 61.4,12.57 116.6,24.15 166.3,34.85 321.1,-100.34 306.4,-145.31 -39.3,-244.84 -573,-164.99 483.3,-355.87 342,-497.24 -141.4,-141.36 -1163.5,-277.56 -1077.6,-363.48 30.9,-30.95 199.7,-81.4 403,-133.29 -217.9,-34.28 -514.6,-61.71 -976.1,-61.71 -1230.78,0 -269.2,195 -1068.1,195 -798.79,0 -116.09,-197.77 -1133.78,-197.77 -667.86,0 -1009.24,-67.38 -1299.63,-67.39" /></g></g><g
         id="g32"><g
           clip-path="url(#clipPath38)"
           id="g34"><path
             id="path48"
             style="fill:url(#linearGradient46);fill-opacity:1;fill-rule:nonzero;stroke:none"
             d="m 12545.8,4124.61 c -344.9,0 -1096.4,186 -2046,186 -134.8,0 -939.73,0 -1133.69,0 285.25,0 509.7,237.09 894.29,237.09 13.4,0 27.7,0 43,0 425.2,0 1584,3.36 2467.3,197.2 592.6,130.08 489.6,152.98 343.4,152.98 -79.5,0 -171.8,-6.78 -171.8,-6.78 0,0 -202.1,41.6 -443.1,96.22 -423.7,-163.22 -740.1,-173.45 -1055.5,-173.45 -45.3,0 -90.5,0.21 -136,0.21 -295.9,0 -404.6,110.46 -771.1,110.46 -106.5,0 -234.9,-9.34 -395.9,-33.44 -714.87,-107.02 -1180.59,0.48 -1327.28,-146.2 -106.21,-106.21 310.33,-293.8 -220.84,-293.8 -202.36,0 -542.36,27.25 -1101.13,96.6 -892.18,110.73 -1362.39,147.65 -1609.34,147.65 -313.68,0 -267.11,-59.61 -267.11,-103.25 0,-32.01 54.46,-39.43 27.5,-39.43 -11.66,0 -38.52,1.39 -91.56,2.77 -53.04,1.39 -132.24,2.77 -248.59,2.77 -154.09,0 -373.33,-2.43 -683.17,-10.51 -88.49,-2.31 -167.22,-3.38 -237.59,-3.38 -978.75,0 -320.29,208.34 -1213.24,208.34 -765.07,0 -1457.85,-206.06 -1880.24,-206.06 -106.05,0 -195.09,12.99 -263.91,45.5 -342.93,161.98 64.15,1338.17 64.15,1338.17 417.88,0 180.46,624.08 711.65,766.39 403.22,108.04 457.74,265.09 801.54,265.09 109.11,0 247.39,-15.82 435.16,-54.06 607.63,-123.73 577.44,-241.94 726.51,-241.93 42.15,0 98.64,9.45 187.9,30.9 404.98,97.32 -47.17,411.44 433.89,411.44 172.18,0 282.46,4.96 387.54,4.96 188.52,0 360.26,-15.96 842.46,-105.16 750.99,-138.92 743.16,-213.92 743.16,-213.92 0,0 473.55,314.12 1005.65,314.12 354.74,0 1331.44,26.28 1943.16,26.28 305.84,0 520.48,-6.57 520.48,-26.28 0,-59.13 -904.93,8.72 -45.81,-100.2 859.16,-108.93 1252.46,-228.92 1820.76,-228.92 568.3,0 539.5,0 1071.4,0 531.8,0 859,15 1647.9,15 605.8,0 551.9,169.5 803.2,169.5 76,0 179.9,-15.48 338.2,-55.79 682.4,-173.7 254.9,-541.19 307.4,-593.69 4.7,-4.64 1.6,-6.75 -8.3,-6.75 -101.6,0.01 -921.5,225.08 -1372.2,225.08 -322.8,0 -869.7,-36.55 -1210.4,-61.92 1458.9,-98.58 890.1,-270.49 826.9,-333.69 -63.2,-63.19 -178.3,-325.25 -276.5,-423.42 -98.2,-98.17 -678.1,-539.05 84.6,-672.1 762.7,-133.05 231,-212.12 915.4,-212.12 684.4,0 664.1,-283.57 569.7,-377.98 -94.4,-94.41 -579.1,-140.49 -1569.7,-140.49 -990.6,0 -839.3,-186 -1184.2,-186 M 6524.84,5639.79 c 75.64,0 203.29,-26.36 415.3,-92.89 805.78,-252.84 -236.99,-360.07 239.39,-523.95 163.76,-56.33 301.85,-74.81 453.96,-74.81 290.39,0.01 631.77,67.39 1299.63,67.39 1017.69,0 334.99,197.77 1133.78,197.77 798.9,0 -162.68,-195 1068.1,-195 461.5,0 758.2,27.43 976.1,61.71 -203.3,51.89 -372.1,102.34 -403,133.29 -85.9,85.92 936.2,222.12 1077.6,363.48 141.3,141.37 -915,332.25 -342,497.24 345.7,99.53 360.4,144.5 39.3,244.84 -49.7,-10.7 -104.9,-22.28 -166.3,-34.85 -491.9,-100.7 -1021.6,-147.21 -1481.6,-147.21 -293.8,0 -559.2,18.98 -768.2,54.93 -536.07,92.28 644.5,254.87 -470.75,254.87 -743.54,0 -906.06,150.29 -1032,150.29 -62.97,0 -116.8,-37.58 -229.51,-150.29 -338.16,-338.16 309.42,-267.59 -334.64,-447.58 -118.31,-33.06 -205.05,-46.2 -273.69,-46.2 -133.1,0 -198.06,49.43 -292.78,98.87 -94.73,49.43 -219.22,98.86 -471.46,98.86 -73.53,0 -157.93,-4.2 -255.59,-13.83 -97.13,-9.57 -177.77,-13.86 -244.89,-13.86 -582.8,0 -142.07,323.74 -545.58,323.74 -449.98,0 -767.1,173.4 -1156.01,173.4 -388.91,0 -1186.04,-210.72 -375,-430.85 811.04,-220.13 962.25,-370.12 -193.3,-370.12 -1155.55,0 -1467.84,265.43 -1191.7,372.7 225.07,87.44 36.77,183.31 -275.8,183.31 -70.92,0 -148.29,-4.94 -228.62,-16.04 -434.38,-59.99 316.4,-415.25 441.12,-539.97 24.28,-24.28 5.38,-32.26 -36.88,-32.26 -40.46,0 -102.33,7.32 -168.21,14.63 -65.88,7.31 -135.76,14.63 -192.25,14.63 -131.04,0 -189.96,-39.37 40.64,-209.43 423.98,-312.66 497.5,-344.67 831.35,-344.67 85.99,0 189.33,2.13 320.31,2.13 423.33,0 588.92,44.15 775.63,44.15 95.3,0 196.14,-11.51 339.51,-46.28 424.24,-102.87 -396.26,-78.22 -173.5,-173.04 147.42,-62.75 399.13,-73.36 685.74,-73.36 146.46,0 302.08,2.77 457.47,2.77 459.48,0 434.92,157.57 583.1,305.76 109.19,109.19 -86.6,315.73 125.23,315.73" /></g></g><g
         id="g50"><g
           clip-path="url(#clipPath56)"
           id="g52"><path
             id="path66"
             style="fill:url(#linearGradient64);fill-opacity:1;fill-rule:nonzero;stroke:none"
             d="m 4191.7,230 8178.2,74.402 -561,1606.698 L 4250,1816.67 4191.7,230" /></g></g><path
         id="path68"
         style="fill:#b6574f;fill-opacity:1;fill-rule:nonzero;stroke:none"
         d="m 8173.93,1870 544.09,-40.08 -723.67,-254.17 -5079.34,247.5 v 2407.67 l 747.25,-381.59 627.75,72.26 372.25,127.75 238.83,-183.34 305.59,-388.92 127.83,5.5 133.25,5.67 794.5,-194.5 288.84,-416.67 538.91,-244.41 277.75,-216.67 128.88,-61.5 677.29,-484.5" /><path
         id="path70"
         style="fill:#dd726e;fill-opacity:1;fill-rule:nonzero;stroke:none"
         d="m 5844.18,2917 252.75,-73.58 -94.42,1.41 -141.67,-4.16 -56.91,45.25 -134.75,-88.34 -29.17,72.25 c 0,0 -77.75,80.5 -68.08,90.25 9.75,9.75 111.83,77.09 107,81.92 -4.92,4.92 -98.67,76.42 -98.67,76.42 l -75,70.83 -151.33,15.25 -112.5,95.83 -122.25,15.34 -358.34,40.25 213.92,45.83 -144.5,62.5 73.67,51.42 -165.34,73.58 107,81.92 -72.25,140.33 70.84,26.34 16.66,37.5 -180.58,56.99 c 0,0 20.83,41.67 0,50 -20.83,8.34 -61.08,23.59 -61.08,23.59 l 43.08,43.42 238.83,-183.34 305.59,-388.92 94.41,-117 354.17,-205.58 188.92,-237.5" /><path
         id="path72"
         style="fill:#dd726e;fill-opacity:1;fill-rule:nonzero;stroke:none"
         d="m 7367.76,2416 200,-155.25 -118,38.25 -123.66,79.17 -187.5,34.66 -11.09,80.59 -140.25,73.58 12.5,73.67 -344.5,105.5 c 0,0 -22.16,54.16 -26.33,58.33 -4.17,4.17 -202.83,30.58 -202.83,30.58 l 51.41,37.5 -130.58,30.75 34.75,95.67 -195.84,55.5 c 0,0 6.92,101.42 13.92,101.42 6.92,0 -87.5,37.5 -82,43.08 5.58,5.5 98.67,52.75 98.67,52.75 v 33.33 l -390.34,101.42 c 0,0 -352.08,9 -359.66,16.67 -7.67,7.58 -75,55.5 -94.5,61.08 -6.42,1.83 -20.84,9.25 -37.42,18.33 l 133.25,5.67 794.5,-194.5 288.84,-416.67 538.91,-244.41 277.75,-216.67" /><path
         id="path74"
         style="fill:#dd726e;fill-opacity:1;fill-rule:nonzero;stroke:none"
         d="M 12523.6,2524.72 V 1790.76 H 8277.3 l -103.37,113.25 185.32,91.75 724.7,358.74 0.07,0.07 207.44,-179.96 269.28,4.1 131.54,139.89 223.99,108.94 504.23,-157.7 265.2,273.38 380.4,-179.82 281.1,264.13 725.7,250.01 c 0,0 278.6,-226.43 450.7,-352.82" /><path
         id="path76"
         style="fill:#f68b8d;fill-opacity:1;fill-rule:nonzero;stroke:none"
         d="m 11066.1,2363.4 -290.9,-278.39 227.2,76.52 -4.6,57.95 134.5,62.6 78.8,113.6 176.3,27.82 97.4,102.05 -46.4,67.27 361.7,48.69 37.1,76.52 109,-9.32 90.4,109.01 36.3,59.82 -725.7,-250.01 -281.1,-264.13" /><path
         id="path78"
         style="fill:#f68b8d;fill-opacity:1;fill-rule:nonzero;stroke:none"
         d="m 10420.5,2269.84 -174,-168.62 174,67.27 127.5,72.2 -34.8,34.44 111.3,60.31 v 55.65 l 67.3,34.78 -6.1,117.35 -265.2,-273.38" /><path
         id="path80"
         style="fill:#f68b8d;fill-opacity:1;fill-rule:nonzero;stroke:none"
         d="m 9560.73,2178.71 -269.28,-4.1 150.46,-73.39 48.7,-2.3 81.11,60.25 97.46,27.82 v 53.7 l 74.15,41.39 11.62,32.49 136.83,2.29 v 38.82 l 53.28,30.75 -28.8,41.11 -223.99,-108.94 -131.54,-139.89" /><path
         id="path82"
         style="fill:#f68b8d;fill-opacity:1;fill-rule:nonzero;stroke:none"
         d="m 8359.24,1995.76 6.75,-73.11 285.2,-11.55 23.24,120.56 139.12,57.94 c 0,0 11.55,76.52 23.17,76.52 11.61,0 189.14,66.57 197.07,74.57 7.86,7.79 48.9,110.61 50.15,113.81 l -724.7,-358.74" /><path
         id="path84"
         style="fill:#8d3b37;fill-opacity:1;fill-rule:nonzero;stroke:none"
         d="M 12291.8,1518.63 V 0 H 4081.42 v 207.602 l 544.76,247.269 441.24,-74.762 379.73,80.512 1259.32,74.75 269.78,253.008 1344.38,51.75 277.1,132.223 1457.27,97.748 389.9,161.01 1159.7,109.26 184.7,120.75 502.5,57.51" /><path
         id="path86"
         style="fill:#dd726e;fill-opacity:1;fill-rule:nonzero;stroke:none"
         d="m 4626.18,454.871 441.24,-74.762 -251.65,-75.707 z" /><path
         id="path88"
         style="fill:#dd726e;fill-opacity:1;fill-rule:nonzero;stroke:none"
         d="m 5447.15,460.621 1259.32,74.75 -574.72,-90.43 -173.37,25.528 c 0,0 -360.3,-28.059 -378.57,-28.059 -18.27,0 -132.66,18.211 -132.66,18.211" /><path
         id="path90"
         style="fill:#dd726e;fill-opacity:1;fill-rule:nonzero;stroke:none"
         d="m 8597.73,972.352 1457.27,97.748 -41.6,-50.14 h -291.95 l -223.46,-33.19 h -269.16 l -218.94,-50.34 -396.84,17.101 -113.98,-99.672 -27.37,-84.148 -159.69,44.93 -125.42,-32.512 h -362.62 l -556.46,-112.277 -109.47,74.097 -181.79,44.43 1344.38,51.75 277.1,132.223" /><path
         id="path92"
         style="fill:#dd726e;fill-opacity:1;fill-rule:nonzero;stroke:none"
         d="m 11851.5,1441.3 -68.3,-71.18 68.3,-63.91 h -296.4 l -369.5,-30.67 -243.4,-65.17 -445.3,-19.36 -118.6,-45.81 63.9,-48.57 -95.8,-26.53 v -52.67 l -291.4,52.67 389.9,161.01 1159.7,109.26 184.7,120.75 502.5,57.51 -440.3,-77.33" /><path
         id="path94"
         style="fill:#fbc697;fill-opacity:1;fill-rule:nonzero;stroke:none"
         d="m 9801.94,2365.93 c -77.05,198.05 -226.85,357.68 -414.65,442.42 h 829.31 c -187.8,-84.74 -337.6,-244.37 -414.66,-442.42 z m -1448.34,0 c -77.06,198.05 -226.85,357.68 -414.65,442.42 h 829.3 c -187.8,-84.74 -337.6,-244.37 -414.65,-442.42 z m -1448.34,0 c -77.06,198.05 -226.86,357.68 -414.65,442.42 h 829.3 c -187.8,-84.74 -337.6,-244.37 -414.65,-442.42 z M 3705.65,3062.8 V 0 h 1962.82 v 2060.84 c 0,295.09 229.54,534.36 512.62,534.36 141.57,0 269.65,-59.8 362.49,-156.49 92.76,-96.78 150.12,-230.28 150.12,-377.87 V 0 h 423.11 v 2060.84 c 0,295.09 229.54,534.36 512.62,534.36 141.58,0 269.65,-59.8 362.49,-156.49 92.76,-96.78 150.12,-230.28 150.12,-377.87 V 0 h 423.12 v 2060.84 c 0,295.09 229.53,534.36 512.61,534.36 141.58,0 269.65,-59.8 362.49,-156.49 92.76,-96.78 150.13,-230.28 150.13,-377.87 V 0 h 423.11 v 2060.84 c 0,295.09 229.5,534.36 512.6,534.36 141.6,0 269.7,-59.8 362.5,-156.49 92.8,-96.78 150.1,-230.28 150.1,-377.87 V 0 H 13100 V 3062.8 H 3705.65" /><path
         id="path96"
         style="fill:#662928;fill-opacity:1;fill-rule:nonzero;stroke:none"
         d="m 9895.96,2384.86 c -82.23,202.76 -242.1,366.19 -442.51,452.93 h 885.05 c -200.4,-86.74 -360.31,-250.17 -442.54,-452.93 z m -1545.67,0 c -82.23,202.76 -242.1,366.19 -442.51,452.93 h 885.02 c -200.41,-86.74 -360.28,-250.17 -442.51,-452.93 z m -1545.67,0 c -82.23,202.76 -242.09,366.19 -442.51,452.93 h 885.03 c -200.42,-86.74 -360.28,-250.17 -442.52,-452.93 z M 3390.02,3098.3 V 0 h 2094.71 v 2072.51 c 0,302.11 244.96,547.07 547.06,547.07 151.1,0 287.77,-61.22 386.85,-160.21 98.99,-99.08 160.21,-235.76 160.21,-386.86 V 0 h 451.55 v 2072.51 c 0,302.11 244.96,547.07 547.06,547.07 151.09,0 287.77,-61.22 386.85,-160.21 98.99,-99.08 160.21,-235.76 160.21,-386.86 V 0 h 451.54 v 2072.51 c 0,302.11 244.96,547.07 547.07,547.07 151.09,0 287.77,-61.22 386.85,-160.21 98.99,-99.08 160.21,-235.76 160.21,-386.86 V 0 h 451.51 v 2072.51 c 0,302.11 245,547.07 547.1,547.07 151.1,0 287.8,-61.22 386.8,-160.21 99,-99.08 160.3,-235.76 160.3,-386.86 V 0 h 2199.7 V 3098.3 H 3390.02" /><path
         id="path98"
         style="fill:#732418;fill-opacity:1;fill-rule:nonzero;stroke:none"
         d="M 5166.7,1633.3 5157.39,394.242 4803.33,900 l 203.37,566.6 -320,66.7 -393.4,73.3 440,-420 L 4560,993.301 3993.5,898 3886.7,880 3826.7,373.301 C 3826.7,373.301 2393.3,0 2353.3,0 H 0 v 6246.6 l 806.699,373.4 326.601,-220 473.4,46.6 193.3,-240 -80,-613.3 306.7,120 235.6,-27.4 51,-5.9 40,-200 226.7,126.6 318.1,-59.7 h 0.1 l 1.8,-0.3 213.2,-333.2 0.1,-0.1 h 180 l 20,-226.7 -260,-473.3 H 3300 l 113.3,-333.3 160,-46.7 113.4,-480 3.8,-200.8 2.8,-152.5 260,-186.7 53.4,120 86.6,-46.7 98.4,-186.4 155,-293.6 600,-446.6 220,-626.7" /><path
         id="path100"
         style="fill:#96291e;fill-opacity:1;fill-rule:nonzero;stroke:none"
         d="m 4673.3,2334.1 -91.6,-250.8 -215,-80 -20,470 -176.7,-183.3 -230,-36.7 -250,166.7 243.3,270 258.4,-16.7 -180,180 v 190 l -28.4,20 -436.6,-96.6 c 0,0 145,-291.7 100,-336.7 -45,-45 -243.4,163.3 -243.4,240 0,76.7 -43.4,243.5 26.7,313.6 41.9,41.9 154.2,164.8 260.5,268.9 l 2.8,-152.5 260,-186.7 53.4,120 86.6,-46.7 98.4,-186.4 c 0,0 38.3,-153.5 38.3,-170.2 0,-16.7 160,-213.3 160,-213.3 l 37,-136.7 246.3,-145.9" /><path
         id="path102"
         style="fill:#491915;fill-opacity:1;fill-rule:nonzero;stroke:none"
         d="m 4293.3,1606.6 653.4,-308.3 -20.2,-225.2 -711,428.5 -399.7,543.6 39.2,33.1 266.7,225 75,220 165,25 55,-245 25,-140 140,-80 456.5,-583.8 23.13,-688.699 -768.03,795.799" /><path
         id="path104"
         style="fill:#96291e;fill-opacity:1;fill-rule:nonzero;stroke:none"
         d="M 4946.7,1298.3 5125,540 4560,993.301 4416.7,1128.3 l -340,65 40,140 -130,120 -80,255 -62.5,73.2 -82.5,96.8 15,120 -215,175 -205,620 240,-365 -50,265 -90,275 60,285 -115,165 30,240 -355,-245 496.6,720 113.4,-480 6.6,-353.3 73.4,-1126.7 88.3,-95 438.3,-471.7 653.4,-308.3" /><path
         id="path106"
         style="fill:#491915;fill-opacity:1;fill-rule:nonzero;stroke:none"
         d="m 4191.7,2673.3 -350,225 85,140 26.6,75 53.4,120 -28.37,-112.47 33.37,-77.53 180,-370" /><path
         id="path108"
         style="fill:#491915;fill-opacity:1;fill-rule:nonzero;stroke:none"
         d="m 3076.7,3413.3 c 0,0 25,-530 25,-555 0,-25 -80,-185 -80,-185 l -85,145 60,535 40,79.4 44.7,88.7 331.9,658.6 160,-46.7 -496.6,-720" /><path
         id="path110"
         style="fill:#96291e;fill-opacity:1;fill-rule:nonzero;stroke:none"
         d="m 2851.66,2948.3 c 17.5,-17.5 145,-275 270,-400 125,-125 300,-470 300,-470 l 165,-435 145,-375 c 0,0 -140,30 -190,255 -50,225 -267.5,527.5 -325,585 -57.5,57.5 -340,235 -365,370 -25,135 0,470 0,470" /><path
         id="path112"
         style="fill:#96291e;fill-opacity:1;fill-rule:nonzero;stroke:none"
         d="m 3300,4513.3 -183.3,-825 -35.3,-166.9 -44.7,-211.4 c 0,0 0,52.2 0,122.7 v 370.6 c 0,55 40,590 40,590 l -18.6,95.4 -4.8,24.6 47.5,34.4 -24.9,-34.4 H 3300" /><path
         id="path114"
         style="fill:#96291e;fill-opacity:1;fill-rule:nonzero;stroke:none"
         d="m 3053.3,4513.3 47.5,34.4 -24.9,-34.4 -17.8,-24.6 -76.4,-105.4 c 0,0 -27.5,-577.5 -70,-620 -42.5,-42.5 -155,-505 -155,-535 0,-30 -70,0 -70,0 l 153.8,520 71.2,680 c 0,0 210,395 210,420 0,25 110,270 110,270 v 95 h 61.6 l 20,-226.7 -260,-473.3" /><path
         id="path116"
         style="fill:#491915;fill-opacity:1;fill-rule:nonzero;stroke:none"
         d="m 3011.66,5018.3 c -127.5,-127.5 -450,-413.33 -450,-696.67 0,-283.33 40,-583.33 -60,-733.33 -100,-150 -190,-185 -190,-185 0,0 400,-975 440,-1205 40,-230 455,-670 480,-695 25,-25 -360,235 -505,500 -145,265 -465,1070 -510,1115 -45,45 -77.5,532.5 -120,575 -42.5,42.5 97.5,67.5 180,-15 82.5,-82.5 140,196.67 140,368.33 0,171.67 113.57,748.58 166.66,801.67 53.1,53.09 428.34,170 428.34,170" /><path
         id="path118"
         style="fill:#96291e;fill-opacity:1;fill-rule:nonzero;stroke:none"
         d="m 3113.2,5213.4 c -5.4,2.2 -176.5,75.4 -176.5,109.9 0,35 -10,75 -45,75 -35,0 -170,-185 -170,-185 L 2630,4877.6 2501.7,4408.3 c 0,0 -179.77,-574.7 -167.87,-425 19.4,245.5 236.07,1266.5 249.47,1280 21.7,21.7 108.4,230 163.4,230 25.5,0 89.9,25.9 151.4,53.6 h 0.1 l 1.8,-0.3 213.2,-333.2" /><path
         id="path120"
         style="fill:#96291e;fill-opacity:1;fill-rule:nonzero;stroke:none"
         d="m 2313.3,5680 c 0,0 -56.6,-661.7 -101.6,-706.7 -45,-45 -290,-1120 -315,-1145 -25,-25 -305,-330 -305,-330 0,0 -135,411.7 -65,548.3 70,136.7 360,501.7 420,636.7 60,135 170,650 195,745 12.8,48.7 68.9,160.3 120.6,257.6 l 51,-5.9" /><path
         id="path122"
         style="fill:#491915;fill-opacity:1;fill-rule:nonzero;stroke:none"
         d="m 2026.7,5713.3 -10.1,-255 -339.9,-860 c 0,0 -363.8,-946.3 -380,-962.5 -16,-15.9 -465.598,-439 -479.7,-452.2 l 404.7,489.7 c 0,0 370,1345 425,1460 55,115 73.3,460 73.3,460 l 306.7,120" /><path
         id="path124"
         style="fill:#732418;fill-opacity:1;fill-rule:nonzero;stroke:none"
         d="m 3910,1073.1 h 565.29 L 4916.7,963.301 5125,540 5245,0 H 3525 l 385,1073.1" /><path
         id="path126"
         style="fill:#96291e;fill-opacity:1;fill-rule:nonzero;stroke:none"
         d="m 1800,6206.6 -148.3,-643.3 -110,-350 c 0,0 -425,-275 -425,-360 0,-85 90,-450 70,-470 -20,-20 -480.001,-275 -480.001,-275 l -330,-472.5 c 0,0 167.5,625 185,642.5 17.5,17.5 370,320 370,320 l 95.001,295 35,405 250,165 50,555 -105,230 249.8,5 100.2,193.3 193.3,-240" /><path
         id="path128"
         style="fill:#96291e;fill-opacity:1;fill-rule:nonzero;stroke:none"
         d="m 1256.7,5758.3 -465.001,475 15,386.7 326.601,-220 123.4,-641.7" /><path
         id="path130"
         style="fill:#491915;fill-opacity:1;fill-rule:nonzero;stroke:none"
         d="m 3036.7,639.969 -100,706.661 -439.53,155 -246.67,309.07 -126.67,675.93 -213.9,500 -488.08,196.97 -424.682,-43.63 -306.668,-186.67 566.67,-733.33 738.08,-253.34 128.58,-349.98 386.67,-830.021 526.2,-146.66" /><path
         id="path132"
         style="fill:#96291e;fill-opacity:1;fill-rule:nonzero;stroke:none"
         d="m 2353.3,0 43.9,753.301 -487.3,273.299 -212.7,553.4 360,53.3 -30.5,233.3 -1650.001,320 300.5,293.4 -406.699,473.3 -106.699,280 373.398,-166.7 760.001,-393.3 860,-780 346.6,-873.3 393.4,-233.398 335.6,-213.301 80.5,213.301 L 3573.3,740 4011.7,0 c 0,0 -1618.4,0 -1658.4,0" /><path
         id="path134"
         style="fill:#491915;fill-opacity:1;fill-rule:nonzero;stroke:none"
         d="M 1030.5,426.602 1463.8,0 H 0 v 2823.2 c 118.301,-86.4 250.5,-187.8 250.5,-209.9 0,-40 -120,-533.3 -120,-533.3 L 376.699,1213.3 1506.6,1501.6 557.199,1040 910.5,753.301 l 660,-160 -540,-166.699" /><path
         id="path136"
         style="fill:#732418;fill-opacity:1;fill-rule:nonzero;stroke:none"
         d="M 15999.4,7108.1 V 0 H 12260 L 12421.3,98.4023 12850,360 12267.6,726 h -0.1 l -119.1,74.801 -78.4,49.199 64.5,174.1 35.5,95.9 -380,80 -15.3,24.8 -144.7,235.2 110,770 320,318.3 120,231.7 610,185.9 300,486.6 270,97.5 -50,265.7 381.3,74.3 123.3,19.5 0.1,0.1 106.4,16.8 39.4,152.1 243,150.7 v 176.6 l 118.2,84.2 59.1,308.6 183.8,224.4 h 170.7 l 54.4,95.3 142.7,250.7 -144.5,579.6 144.5,243.1 c 0,0 210.1,65.6 236.3,65.6 26.3,0 282.4,46.7 282.4,46.7 l 12,72.1 53.6,320.6 275.8,140.2 53.9,70.7 0.1,0.1 152.9,200.4" /><path
         id="path138"
         style="fill:#732418;fill-opacity:1;fill-rule:nonzero;stroke:none"
         d="m 13927.6,0 h -2619.9 l 58.6,596.699 279.7,892.501 350.7,86.5 c 0,0 684.6,-392.4 725.6,-392.4 41,0 983.8,80 1092.4,-146.6 84.7,-176.899 150,-737.098 112.9,-1036.7" /><path
         id="path140"
         style="fill:#96291e;fill-opacity:1;fill-rule:nonzero;stroke:none"
         d="m 14203.5,4405.8 118.2,84.17 -41.8,-73.05 -33.2,-45.09 c 0,0 -35.7,-53.91 -24.9,-70.14 10.8,-16.24 26.6,-147.8 26.6,-147.8 l -11.6,-117.74 68.1,-278.07 -93.1,-132.77 -16.6,576.17 -186,-115.23 -25,-67.64 -36.5,-72.65 36.5,-85.17 -51.5,-67.64 18.3,-87.68 -41.5,-107.72 c 0,0 -39.9,-197.9 -68.1,-240.49 -22.1,-33.26 -101,-231.57 -134.7,-317.14 l -15.4,0.5 269.2,1037.91 243,150.71 v 176.56" /><path
         id="path142"
         style="fill:#96291e;fill-opacity:1;fill-rule:nonzero;stroke:none"
         d="m 14638.8,4647.39 21.6,-100.2 -43.2,-165.34 v -192.89 l -33.2,-195.4 -18.3,207.92 5,298.11 29.9,253.01 -59.8,132.78 -118,-90.19 h 46.5 l -14.9,-85.17 124.6,70.14 -139.6,-230.47 1.7,-195.4 -15,-130.26 29.9,-170.35 -13.2,-237.98 -51.5,147.8 19.9,112.73 -49.9,85.17 v 117.74 l -39.6,210.83 59.1,308.63 183.8,224.36 62.6,-87.48 1.6,-82.67 59.8,-102.71 -49.8,-102.71" /><path
         id="path144"
         style="fill:#96291e;fill-opacity:1;fill-rule:nonzero;stroke:none"
         d="m 15381.4,4131.34 -142.9,-145.3 -154,547.82 -110.7,521.06 -77.5,160.33 -106.6,-96.9 142.7,250.61 -144.5,579.68 144.5,243.09 74.7,-241.69 194.9,-50.1 -149.6,-210.43 -45.3,-35.07 -161.8,245.5 213.8,-701.43 29.9,370.76 146.2,-370.76 -79.8,-415.84 226,-651.33" /><path
         id="path146"
         style="fill:#96291e;fill-opacity:1;fill-rule:nonzero;stroke:none"
         d="m 15680.4,5576.78 -76.4,501.02 -140.9,298.31 53.6,320.55 55.7,-177.96 94.7,-398.31 13.3,-543.61" /><path
         id="path148"
         style="fill:#96291e;fill-opacity:1;fill-rule:nonzero;stroke:none"
         d="m 15999.4,7108.1 v -122.25 c -53.9,-28.76 -148.8,-76.15 -152.9,-78.16 l 152.9,200.41" /><path
         id="path150"
         style="fill:#491915;fill-opacity:1;fill-rule:nonzero;stroke:none"
         d="m 13033.3,2260 120,-216.7 -503.3,-236.6 -236.7,-156.7 -120,-646.7 -158.8,20.8 35.5,95.9 -676.7,-626.668 281.4,731.468 295.3,275.2 190,530 350,50 -80,350 16.7,296.7 50,96.6 263.3,146.7 371.5,92.8 -204.8,-236.1 6.6,-566.7" /><path
         id="path152"
         style="fill:#96291e;fill-opacity:1;fill-rule:nonzero;stroke:none"
         d="m 13606.7,3633.3 193.3,43.4 -196.7,-200 c 0,0 -196.6,-410 -196.6,-396.7 0,13.3 56.6,366.7 56.6,366.7 l -316.6,-53.4 -40,-336.6 216.6,41.6 -486.6,-188.3 -290,-183.3 -286.7,-23.4 -150,-160 123.3,-40 133.4,-169.2 -400,-140.8 -186.7,-460 -150,-273.3 110,770 320,318.3 120,231.7 610,185.9 300,486.6 270,97.5 -50,265.7 381.3,74.3 123.3,19.5 -227.9,-144.5 20,-131.7" /><path
         id="path154"
         style="fill:#96291e;fill-opacity:1;fill-rule:nonzero;stroke:none"
         d="m 15999.4,4744.9 v -364.2 l -152.9,-175.3 V 3620 l -383.4,-521.7 -81.7,361.7 -531.4,-150 -460,-340 340,584 1193,1086 76.4,104.9" /><path
         id="path156"
         style="fill:#491915;fill-opacity:1;fill-rule:nonzero;stroke:none"
         d="m 14730,2030 -408.3,-420 -507,-240 L 13450,522.699 13120,0 h -560 L 12421.3,98.4023 12850,360 l -582.4,366 232.4,24 610,140 300,570 240,330 h 580 v 640 l 350,-170 150,-230" /><path
         id="path158"
         style="fill:#96291e;fill-opacity:1;fill-rule:nonzero;stroke:none"
         d="m 13340,2470 351.3,-350 -441.3,-330 -690,-80 162.3,-320 -573.9,-589.199 -78.4,49.199 100,270 250,670 640,220 70,500 684.7,360 -474.7,-400" /><path
         id="path160"
         style="fill:#96291e;fill-opacity:1;fill-rule:nonzero;stroke:none"
         d="m 16000,2684.8 v -350.7 l -0.6,-0.1 -914.8,-134 -396,-480 L 14105,1390 14787.9,890 13870,760 13218.6,0 H 12260 l 590,360 230,-210 470,830 141.3,660 h 568.7 l 650,694.1 -750,350.7 528.6,-54.8 396,110 310.4,-220 604.4,164.6 0.6,0.2" /><path
         id="path162"
         style="fill:#491915;fill-opacity:1;fill-rule:nonzero;stroke:none"
         d="M 15999.4,1740.9 V 0 h -1272.3 l 422.9,340 180,460.801 -730,499.199 863.1,-250 266.9,570 269.4,120.9" /><path
         id="path164"
         style="fill:#491915;fill-opacity:1;fill-rule:nonzero;stroke:none"
         d="m 15610,5576.78 c 0,0 -146.9,-873.45 -146.9,-900.11 0,-26.67 73.5,-471.26 73.5,-471.26 l 143.8,164.59 -63.7,374.9 -6.7,831.88" /><path
         id="path166"
         style="fill:#491915;fill-opacity:1;fill-rule:nonzero;stroke:none"
         d="m 14816.7,4891.1 c 37.2,-37.22 66.6,-301.1 66.6,-301.1 0,0 -66.6,-384.59 -33.3,-384.59 33.3,0 -33.3,-295.91 -33.3,-295.91 L 14730,3370 c 0,0 226.7,280 246.7,300 20,20 20,353.33 0,373.33 -20,20 107.9,253.34 107.9,253.34 l -107.9,273.33 -69.4,286.67 -90.6,34.43" /><path
         id="path168"
         style="fill:#491915;fill-opacity:1;fill-rule:nonzero;stroke:none"
         d="m 14076.7,3554.05 -346.7,-650.72 400,466.67 66.7,-73.33 -126.7,-393.34 180,325.36 140,241.31 c 0,0 -33.3,-202.62 -33.3,-241.31 0,-38.69 33.3,-258.69 33.3,-258.69 l 153.3,533.33 V 3790 l -221.6,-213.33 -85,-120 -106.7,146.66 6.7,161.72 -100,-101.72 40,-109.28" /><path
         id="path170"
         style="fill:#491915;fill-opacity:1;fill-rule:nonzero;stroke:none"
         d="M 13056.7,563.332 12267.6,726 11945.9,470 11576.7,0 h 1365.6 l 81,310 33.4,253.332" /><path
         id="path172"
         style="fill:#96291e;fill-opacity:1;fill-rule:nonzero;stroke:none"
         d="M 12310,1090 12148.4,800.801 11905,583.332 11576.7,0 h -269 l 104.5,483.332 757.8,636.668 140,-30" /><path
         id="path174"
         style="fill:#96291e;fill-opacity:1;fill-rule:nonzero;stroke:none"
         d="m 11770,1816.67 v -101.59 l 226.7,-139.38 -60,-165.7 -306.7,-270 -136.7,-646.668 -113.3,147.09 291.3,1108.448 98.7,67.8" /><path
         id="path176"
         style="fill:#fbcda3;fill-opacity:1;fill-rule:nonzero;stroke:none"
         d="m 6430.68,3492.94 -26.9,92.06 c 0,0 69.87,15 154.63,27.5 84.77,12.5 166.72,70 250.75,70 84.02,0 324.02,87.5 414.02,87.5 90,0 209.03,32.5 268.27,50 59.23,17.5 161.73,47.5 239.23,47.5 77.5,0 180,25 227.5,40 47.5,15 204.33,35 284.67,35 80.33,0 230.33,25 375.33,37.5 145,12.5 375.09,47.5 462.55,47.5 87.45,0 364.95,37.5 469.95,37.5 105,0 242.5,15 427.5,-45 185.02,-60 119.42,-62.5 208.42,-50 89.1,12.5 390.3,90 482.2,40 91.9,-50 -106.2,-77.5 -77.2,-77.5 29.1,0 14.8,-52.5 -165.6,-75 -180.3,-22.5 -180.2,-35 -285.3,-35 -105,0 -106.9,-75.39 -193.46,-42.7 -86.56,32.7 123.46,32.7 -89.06,62.7 -212.5,30 251.92,107.5 -76.53,107.5 -328.47,0 -107.46,20 -341.71,-5 -234.26,-25 -97.4,-37.5 59.17,-62.5 156.57,-25 99.07,-45 -113.43,-85 -212.5,-40 245,-47.5 -157.5,-47.5 -402.5,0 -29.3,45 -267.15,45 -237.85,0 -152.85,50 -302.85,2.5 -150,-47.5 267.5,-42.5 -37.5,-72.5 -305,-30 -95,-45 -342.5,-45 -247.5,0 -85,27.5 -190,40 -105,12.5 -127.5,35 -222.5,35 -95,0 -40,17.5 -230,0 -190,-17.5 -117.5,-52.5 -295,-52.5 -177.5,0 10.21,25 -161.14,-7.5 -171.36,-32.5 -281.91,-45 -370.38,-65 -88.48,-20 -161.87,-45 -186.42,-45 -24.56,0 -108.96,0 -108.96,0 l -83.1,-92.06" /><path
         id="path178"
         style="fill:#fbcda3;fill-opacity:1;fill-rule:nonzero;stroke:none"
         d="m 10863.3,4191.05 c 139.3,20.89 343.6,34.82 394.7,16.25 51.1,-18.57 -244.7,-127.69 -144.4,-127.69 100.3,0 -107.5,-74.29 -218.3,-34.83 -110.9,39.47 136.2,69.65 -64,102.16 -200.2,32.5 32,44.11 32,44.11" /><path
         id="path180"
         style="fill:#fbcda3;fill-opacity:1;fill-rule:nonzero;stroke:none"
         d="m 11530.3,4290.42 c 119.7,28.61 233.4,25.19 373,0 139.6,-25.2 -105.5,-16.68 -146.4,-26.9 -40.8,-10.21 141.5,-40.85 116.7,-49.37 -24.7,-8.51 -300.5,0 -372,0 -71.5,0 379.5,32.35 221.2,32.35 -158.2,0 -301.2,0.79 -236.5,10.61 64.6,9.82 -7.4,21.04 44,33.31" /><path
         id="path182"
         style="fill:#66211c;fill-opacity:1;fill-rule:nonzero;stroke:none"
         d="M 9468.16,3503.97 H 8186.59 v -243.2 h 1281.57 v 243.2" /><path
         id="path184"
         style="fill:#4d2021;fill-opacity:1;fill-rule:nonzero;stroke:none"
         d="m 9556,3273.15 v -29.91 h -51.03 v 29.91 H 8149.79 v -29.91 h -52.29 v 29.91 h -40.15 v -101.02 h 40.15 v 29.92 h 52.29 v -29.92 h 1355.18 v 29.92 H 9556 v -29.92 h 40.15 v 101.02 H 9556" /><path
         id="path186"
         style="fill:#361918;fill-opacity:1;fill-rule:nonzero;stroke:none"
         d="m 8362.48,3172.13 c 0,40.78 -33.05,73.83 -73.83,73.83 -40.77,0 -73.83,-33.05 -73.83,-73.83 0,-40.77 33.06,-73.83 73.83,-73.83 40.78,0 73.83,33.06 73.83,73.83" /><path
         id="path188"
         style="fill:#361918;fill-opacity:1;fill-rule:nonzero;stroke:none"
         d="m 8524.77,3172.13 c 0,40.78 -33.05,73.83 -73.83,73.83 -40.78,0 -73.83,-33.05 -73.83,-73.83 0,-40.77 33.05,-73.83 73.83,-73.83 40.78,0 73.83,33.06 73.83,73.83" /><path
         id="path190"
         style="fill:#361918;fill-opacity:1;fill-rule:nonzero;stroke:none"
         d="m 9277.65,3172.13 c 0,40.78 -33.06,73.83 -73.83,73.83 -40.78,0 -73.83,-33.05 -73.83,-73.83 0,-40.77 33.05,-73.83 73.83,-73.83 40.77,0 73.83,33.06 73.83,73.83" /><path
         id="path192"
         style="fill:#361918;fill-opacity:1;fill-rule:nonzero;stroke:none"
         d="m 9439.94,3172.13 c 0,40.78 -33.06,73.83 -73.84,73.83 -40.77,0 -73.83,-33.05 -73.83,-73.83 0,-40.77 33.06,-73.83 73.83,-73.83 40.78,0 73.84,33.06 73.84,73.83" /><path
         id="path194"
         style="fill:#f68531;fill-opacity:1;fill-rule:nonzero;stroke:none"
         d="m 8334.64,3381.18 h -91.79 v 59.8 h 91.79 v -59.8" /><path
         id="path196"
         style="fill:#f3691a;fill-opacity:1;fill-rule:nonzero;stroke:none"
         d="m 8454.33,3381.18 h -91.79 v 59.8 h 91.79 v -59.8" /><path
         id="path198"
         style="fill:#da4420;fill-opacity:1;fill-rule:nonzero;stroke:none"
         d="m 8574.03,3381.18 h -91.79 v 59.8 h 91.79 v -59.8" /><path
         id="path200"
         style="fill:#f68531;fill-opacity:1;fill-rule:nonzero;stroke:none"
         d="m 8693.73,3381.18 h -91.79 v 59.8 h 91.79 v -59.8" /><path
         id="path202"
         style="fill:#f3691a;fill-opacity:1;fill-rule:nonzero;stroke:none"
         d="m 8813.42,3381.18 h -91.78 v 59.8 h 91.78 v -59.8" /><path
         id="path204"
         style="fill:#f68531;fill-opacity:1;fill-rule:nonzero;stroke:none"
         d="m 8933.12,3381.18 h -91.79 v 59.8 h 91.79 v -59.8" /><path
         id="path206"
         style="fill:#da4420;fill-opacity:1;fill-rule:nonzero;stroke:none"
         d="m 9052.82,3381.18 h -91.79 v 59.8 h 91.79 v -59.8" /><path
         id="path208"
         style="fill:#da4420;fill-opacity:1;fill-rule:nonzero;stroke:none"
         d="m 9172.52,3381.18 h -91.79 v 59.8 h 91.79 v -59.8" /><path
         id="path210"
         style="fill:#f3691a;fill-opacity:1;fill-rule:nonzero;stroke:none"
         d="m 9292.21,3381.18 h -91.79 v 59.8 h 91.79 v -59.8" /><path
         id="path212"
         style="fill:#f3691a;fill-opacity:1;fill-rule:nonzero;stroke:none"
         d="m 9411.91,3381.18 h -91.79 v 59.8 h 91.79 v -59.8" /><path
         id="path214"
         style="fill:#4d2021;fill-opacity:1;fill-rule:nonzero;stroke:none"
         d="m 9474.58,3522.79 h -70.42 c 0.18,0.99 0.3,2 0.3,3.04 0,9.21 -7.46,16.67 -16.66,16.67 h -210.84 c -9.2,0 -16.66,-7.46 -16.66,-16.67 0,-1.04 0.12,-2.05 0.3,-3.04 h -211.44 c 0.18,0.99 0.3,2 0.3,3.04 0,9.21 -7.46,16.67 -16.66,16.67 h -210.84 c -9.2,0 -16.66,-7.46 -16.66,-16.67 0,-1.04 0.12,-2.05 0.3,-3.04 h -211.44 c 0.18,0.99 0.3,2 0.3,3.04 0,9.21 -7.46,16.67 -16.66,16.67 h -210.84 c -9.2,0 -16.66,-7.46 -16.66,-16.67 0,-1.04 0.12,-2.05 0.3,-3.04 h -70.42 c -13.55,0 -24.54,-10.99 -24.54,-24.54 0,-5.62 4.56,-10.18 10.18,-10.18 h 1323.12 c 5.62,0 10.17,4.56 10.17,10.18 0,13.55 -10.98,24.54 -24.53,24.54" /><path
         id="path216"
         style="fill:#1b1615;fill-opacity:1;fill-rule:nonzero;stroke:none"
         d="m 7502.35,3430 c 0,0 -3.13,5.5 0,16.25 26.25,11.87 68.12,27.5 100,35 31.87,7.5 93.75,-29.3 111.87,-40.27 18.13,-10.98 35.63,17.64 71.88,29.89 36.25,12.25 113.12,-20.79 116.25,-29.89 3.12,-9.11 -263.13,-52.23 -290.63,-52.23 -27.5,0 -109.37,41.25 -109.37,41.25" /><path
         id="path218"
         style="fill:#66211c;fill-opacity:1;fill-rule:nonzero;stroke:none"
         d="m 7929.68,3450.64 h -438.23 v -189.87 h 438.23 v 189.87" /><path
         id="path220"
         style="fill:#4d2021;fill-opacity:1;fill-rule:nonzero;stroke:none"
         d="m 8017.2,3273.15 v -29.91 h -51.03 v 29.91 h -509.96 v -29.91 h -52.28 v 29.91 h -40.15 v -101.02 h 40.15 v 29.92 h 52.28 v -29.92 h 509.96 v 29.92 h 51.03 v -29.92 h 40.15 v 101.02 h -40.15" /><path
         id="path222"
         style="fill:#361918;fill-opacity:1;fill-rule:nonzero;stroke:none"
         d="m 7657.63,3172.13 c 0,40.78 -33.06,73.83 -73.83,73.83 -40.78,0 -73.84,-33.05 -73.84,-73.83 0,-40.77 33.06,-73.83 73.84,-73.83 40.77,0 73.83,33.06 73.83,73.83" /><path
         id="path224"
         style="fill:#361918;fill-opacity:1;fill-rule:nonzero;stroke:none"
         d="m 7911.17,3172.13 c 0,40.78 -33.06,73.83 -73.84,73.83 -40.77,0 -73.83,-33.05 -73.83,-73.83 0,-40.77 33.06,-73.83 73.83,-73.83 40.78,0 73.84,33.06 73.84,73.83" /><path
         id="path226"
         style="fill:#4d2021;fill-opacity:1;fill-rule:nonzero;stroke:none"
         d="m 6622.74,3312.5 v 0 c -30.72,0 -55.63,24.9 -55.63,55.62 v 41.25 c 0,30.73 24.91,55.63 55.63,55.63 30.72,0 55.62,-24.9 55.62,-55.63 v -41.25 c 0,-30.72 -24.9,-55.62 -55.62,-55.62" /><path
         id="path228"
         style="fill:#4d2021;fill-opacity:1;fill-rule:nonzero;stroke:none"
         d="m 6787.74,3312.5 v 0 c -30.72,0 -55.63,24.9 -55.63,55.62 v 41.25 c 0,30.73 24.91,55.63 55.63,55.63 30.72,0 55.62,-24.9 55.62,-55.63 v -41.25 c 0,-30.72 -24.9,-55.62 -55.62,-55.62" /><path
         id="path230"
         style="fill:#66211c;fill-opacity:1;fill-rule:nonzero;stroke:none"
         d="m 6940.14,3408.38 h -560.53 l -21.45,-73.8 v -73.81 h 581.98 v 147.61" /><path
         id="path232"
         style="fill:#66211c;fill-opacity:1;fill-rule:nonzero;stroke:none"
         d="m 7235.79,3503.97 h -325.32 v -243.2 h 325.32 v 243.2" /><path
         id="path234"
         style="fill:#4d2021;fill-opacity:1;fill-rule:nonzero;stroke:none"
         d="m 7363.81,3273.2 v -101.1 h -40.2 v 29.9 h -51 v -29.9 h -963 l 16,101.1 h 947 v -30 h 51 v 30 h 40.2" /><path
         id="path236"
         style="fill:#361918;fill-opacity:1;fill-rule:nonzero;stroke:none"
         d="m 7201.1,3211.65 c 0,62.6 -50.75,113.35 -113.35,113.35 -62.6,0 -113.35,-50.75 -113.35,-113.35 0,-62.6 50.75,-113.35 113.35,-113.35 62.6,0 113.35,50.75 113.35,113.35" /><path
         id="path238"
         style="fill:#361918;fill-opacity:1;fill-rule:nonzero;stroke:none"
         d="m 6882.99,3172.13 c 0,40.78 -33.06,73.83 -73.83,73.83 -40.78,0 -73.83,-33.05 -73.83,-73.83 0,-40.77 33.05,-73.83 73.83,-73.83 40.77,0 73.83,33.06 73.83,73.83" /><path
         id="path240"
         style="fill:#361918;fill-opacity:1;fill-rule:nonzero;stroke:none"
         d="m 6720.7,3172.13 c 0,40.78 -33.05,73.83 -73.83,73.83 -40.78,0 -73.83,-33.05 -73.83,-73.83 0,-40.77 33.05,-73.83 73.83,-73.83 40.78,0 73.83,33.06 73.83,73.83" /><path
         id="path242"
         style="fill:#361918;fill-opacity:1;fill-rule:nonzero;stroke:none"
         d="m 6558.41,3172.13 c 0,40.78 -33.05,73.83 -73.83,73.83 -40.77,0 -73.83,-33.05 -73.83,-73.83 0,-40.77 33.06,-73.83 73.83,-73.83 40.78,0 73.83,33.06 73.83,73.83" /><path
         id="path244"
         style="fill:#da4420;fill-opacity:1;fill-rule:nonzero;stroke:none"
         d="M 6940.14,3411.08 H 6910 v 59.79 h 30.14 v -59.79" /><path
         id="path246"
         style="fill:#f3691a;fill-opacity:1;fill-rule:nonzero;stroke:none"
         d="m 7059.84,3411.08 h -91.79 v 59.79 h 91.79 v -59.79" /><path
         id="path248"
         style="fill:#f3691a;fill-opacity:1;fill-rule:nonzero;stroke:none"
         d="m 7179.54,3411.08 h -91.79 v 59.79 h 91.79 v -59.79" /><path
         id="path250"
         style="fill:#4d2021;fill-opacity:1;fill-rule:nonzero;stroke:none"
         d="m 7266.71,3498.3 c 0,-5.7 -4.5,-10.2 -10.1,-10.2 h -352.26 c -5.6,0 -10.1,4.5 -10.1,10.2 0,13.5 10.9,24.5 24.5,24.5 h 9.46 c -0.2,1 -0.3,2 -0.3,3 0,9.2 7.5,16.7 16.7,16.7 h 210.8 c 9.2,0 16.7,-7.5 16.7,-16.7 0,-1 -0.1,-2 -0.3,-3 h 70.4 c 13.5,0 24.5,-11 24.5,-24.5" /><path
         id="path252"
         style="fill:#66211c;fill-opacity:1;fill-rule:nonzero;stroke:none"
         d="m 6329.61,3305.83 28.55,19.17 h 16.45 l 25,-95 v -109.17 h -187.5 v 20 l 117.5,165" /><path
         id="path254"
         style="fill:#4d2021;fill-opacity:1;fill-rule:nonzero;stroke:none"
         d="m 6403.78,3585 v -70.31 l 10.37,-42.56 v -71.25 h 89.26 v 71.25 l 10.37,42.56 V 3585 h -110" /><path
         id="path256"
         style="fill:#66211c;fill-opacity:1;fill-rule:nonzero;stroke:none"
         d="M 11007,3503.97 H 9725.4 v -243.2 H 11007 v 243.2" /><path
         id="path258"
         style="fill:#4d2021;fill-opacity:1;fill-rule:nonzero;stroke:none"
         d="m 11094.8,3273.15 v -29.91 h -51 v 29.91 H 9688.59 v -29.91 h -52.29 v 29.91 h -40.15 v -101.02 h 40.15 v 29.92 h 52.29 v -29.92 h 1355.21 v 29.92 h 51 v -29.92 h 40.2 v 101.02 h -40.2" /><path
         id="path260"
         style="fill:#361918;fill-opacity:1;fill-rule:nonzero;stroke:none"
         d="m 9901.29,3172.13 c 0,40.78 -33.06,73.83 -73.84,73.83 -40.77,0 -73.83,-33.05 -73.83,-73.83 0,-40.77 33.06,-73.83 73.83,-73.83 40.78,0 73.84,33.06 73.84,73.83" /><path
         id="path262"
         style="fill:#361918;fill-opacity:1;fill-rule:nonzero;stroke:none"
         d="m 10063.6,3172.13 c 0,40.78 -33.1,73.83 -73.86,73.83 -40.78,0 -73.83,-33.05 -73.83,-73.83 0,-40.77 33.05,-73.83 73.83,-73.83 40.76,0 73.86,33.06 73.86,73.83" /><path
         id="path264"
         style="fill:#361918;fill-opacity:1;fill-rule:nonzero;stroke:none"
         d="m 10816.5,3172.13 c 0,40.78 -33.1,73.83 -73.9,73.83 -40.8,0 -73.8,-33.05 -73.8,-73.83 0,-40.77 33,-73.83 73.8,-73.83 40.8,0 73.9,33.06 73.9,73.83" /><path
         id="path266"
         style="fill:#361918;fill-opacity:1;fill-rule:nonzero;stroke:none"
         d="m 10978.7,3172.13 c 0,40.78 -33,73.83 -73.8,73.83 -40.8,0 -73.8,-33.05 -73.8,-73.83 0,-40.77 33,-73.83 73.8,-73.83 40.8,0 73.8,33.06 73.8,73.83" /><path
         id="path268"
         style="fill:#f68531;fill-opacity:1;fill-rule:nonzero;stroke:none"
         d="m 9873.44,3381.18 h -91.79 v 59.8 h 91.79 v -59.8" /><path
         id="path270"
         style="fill:#f3691a;fill-opacity:1;fill-rule:nonzero;stroke:none"
         d="m 9993.13,3381.18 h -91.79 v 59.8 h 91.79 v -59.8" /><path
         id="path272"
         style="fill:#da4420;fill-opacity:1;fill-rule:nonzero;stroke:none"
         d="m 10112.8,3381.18 h -91.8 v 59.8 h 91.8 v -59.8" /><path
         id="path274"
         style="fill:#f68531;fill-opacity:1;fill-rule:nonzero;stroke:none"
         d="m 10232.5,3381.18 h -91.8 v 59.8 h 91.8 v -59.8" /><path
         id="path276"
         style="fill:#f3691a;fill-opacity:1;fill-rule:nonzero;stroke:none"
         d="m 10352.2,3381.18 h -91.8 v 59.8 h 91.8 v -59.8" /><path
         id="path278"
         style="fill:#f68531;fill-opacity:1;fill-rule:nonzero;stroke:none"
         d="m 10471.9,3381.18 h -91.8 v 59.8 h 91.8 v -59.8" /><path
         id="path280"
         style="fill:#da4420;fill-opacity:1;fill-rule:nonzero;stroke:none"
         d="m 10591.6,3381.18 h -91.8 v 59.8 h 91.8 v -59.8" /><path
         id="path282"
         style="fill:#da4420;fill-opacity:1;fill-rule:nonzero;stroke:none"
         d="m 10711.3,3381.18 h -91.8 v 59.8 h 91.8 v -59.8" /><path
         id="path284"
         style="fill:#f3691a;fill-opacity:1;fill-rule:nonzero;stroke:none"
         d="m 10831,3381.18 h -91.8 v 59.8 h 91.8 v -59.8" /><path
         id="path286"
         style="fill:#f3691a;fill-opacity:1;fill-rule:nonzero;stroke:none"
         d="m 10950.7,3381.18 h -91.8 v 59.8 h 91.8 v -59.8" /><path
         id="path288"
         style="fill:#4d2021;fill-opacity:1;fill-rule:nonzero;stroke:none"
         d="m 11013.4,3522.79 h -70.4 c 0.1,0.99 0.3,2 0.3,3.04 0,9.21 -7.5,16.67 -16.7,16.67 h -210.8 c -9.2,0 -16.7,-7.46 -16.7,-16.67 0,-1.04 0.1,-2.05 0.3,-3.04 H 10488 c 0.1,0.99 0.3,2 0.3,3.04 0,9.21 -7.5,16.67 -16.7,16.67 h -210.8 c -9.2,0 -16.7,-7.46 -16.7,-16.67 0,-1.04 0.1,-2.05 0.3,-3.04 H 10033 c 0.1,0.99 0.3,2 0.3,3.04 0,9.21 -7.5,16.67 -16.7,16.67 h -210.84 c -9.2,0 -16.66,-7.46 -16.66,-16.67 0,-1.04 0.12,-2.05 0.3,-3.04 h -70.42 c -13.55,0 -24.54,-10.99 -24.54,-24.54 0,-5.62 4.56,-10.18 10.18,-10.18 h 1323.08 c 5.7,0 10.2,4.56 10.2,10.18 0,13.55 -11,24.54 -24.5,24.54" /><path
         id="path290"
         style="fill:#66211c;fill-opacity:1;fill-rule:nonzero;stroke:none"
         d="m 12545.8,3503.97 h -1281.6 v -243.2 h 1281.6 v 243.2" /><path
         id="path292"
         style="fill:#4d2021;fill-opacity:1;fill-rule:nonzero;stroke:none"
         d="m 12633.6,3273.15 v -29.91 h -51 v 29.91 h -1355.2 v -29.91 h -52.3 v 29.91 h -40.1 v -101.02 h 40.1 v 29.92 h 52.3 v -29.92 h 1355.2 v 29.92 h 51 v -29.92 h 40.2 v 101.02 h -40.2" /><path
         id="path294"
         style="fill:#361918;fill-opacity:1;fill-rule:nonzero;stroke:none"
         d="m 11440.1,3172.13 c 0,40.78 -33.1,73.83 -73.8,73.83 -40.8,0 -73.9,-33.05 -73.9,-73.83 0,-40.77 33.1,-73.83 73.9,-73.83 40.7,0 73.8,33.06 73.8,73.83" /><path
         id="path296"
         style="fill:#361918;fill-opacity:1;fill-rule:nonzero;stroke:none"
         d="m 11602.4,3172.13 c 0,40.78 -33.1,73.83 -73.9,73.83 -40.7,0 -73.8,-33.05 -73.8,-73.83 0,-40.77 33.1,-73.83 73.8,-73.83 40.8,0 73.9,33.06 73.9,73.83" /><path
         id="path298"
         style="fill:#361918;fill-opacity:1;fill-rule:nonzero;stroke:none"
         d="m 12355.3,3172.13 c 0,40.78 -33.1,73.83 -73.9,73.83 -40.8,0 -73.8,-33.05 -73.8,-73.83 0,-40.77 33,-73.83 73.8,-73.83 40.8,0 73.9,33.06 73.9,73.83" /><path
         id="path300"
         style="fill:#361918;fill-opacity:1;fill-rule:nonzero;stroke:none"
         d="m 12517.5,3172.13 c 0,40.78 -33,73.83 -73.8,73.83 -40.8,0 -73.8,-33.05 -73.8,-73.83 0,-40.77 33,-73.83 73.8,-73.83 40.8,0 73.8,33.06 73.8,73.83" /><path
         id="path302"
         style="fill:#f68531;fill-opacity:1;fill-rule:nonzero;stroke:none"
         d="m 11412.2,3381.18 h -91.8 v 59.8 h 91.8 v -59.8" /><path
         id="path304"
         style="fill:#f3691a;fill-opacity:1;fill-rule:nonzero;stroke:none"
         d="m 11531.9,3381.18 h -91.8 v 59.8 h 91.8 v -59.8" /><path
         id="path306"
         style="fill:#4d2021;fill-opacity:1;fill-rule:nonzero;stroke:none"
         d="m 12552.2,3522.79 h -70.4 c 0.1,0.99 0.3,2 0.3,3.04 0,9.21 -7.5,16.67 -16.7,16.67 h -210.8 c -9.2,0 -16.7,-7.46 -16.7,-16.67 0,-1.04 0.1,-2.05 0.3,-3.04 h -211.4 c 0.1,0.99 0.3,2 0.3,3.04 0,9.21 -7.5,16.67 -16.7,16.67 h -210.8 c -9.2,0 -16.7,-7.46 -16.7,-16.67 0,-1.04 0.1,-2.05 0.3,-3.04 h -211.4 c 0.1,0.99 0.3,2 0.3,3.04 0,9.21 -7.5,16.67 -16.7,16.67 h -210.8 c -9.2,0 -16.7,-7.46 -16.7,-16.67 0,-1.04 0.1,-2.05 0.3,-3.04 h -70.4 c -13.6,0 -24.6,-10.99 -24.6,-24.54 0,-5.62 4.6,-10.18 10.2,-10.18 h 1323.1 c 5.7,0 10.2,4.56 10.2,10.18 0,13.55 -11,24.54 -24.5,24.54" /></g></g></svg>